<svg xmlns="http://www.w3.org/2000/svg" viewBox="0 0 1000 1000"><polygon points="872.044 218.913 862.66 203.158 274.146 202.79 274.514 791.304 290.268 800.688 289.906 218.55 872.044 218.913" fill="#007dd1"/><polygon points="847.86 181.157 835.995 165.397 236.385 165.024 236.758 764.634 252.518 776.499 252.145 180.783 847.86 181.157" fill="#007dd1"/><polygon points="905.697 294.408 900.127 278.654 349.674 278.312 350.015 828.766 365.769 834.336 365.433 294.072 905.697 294.408" fill="#007dd1"/><polygon points="916.383 332.153 912.393 316.399 387.435 316.073 387.765 841.031 403.52 845.022 403.199 331.833 916.383 332.153" fill="#007dd1"/><polygon points="923.457 369.898 920.923 354.144 425.196 353.835 425.505 849.562 441.259 852.096 440.955 369.594 923.457 369.898" fill="#007dd1"/><polygon points="927.096 407.638 925.975 391.889 462.957 391.601 463.245 854.62 478.994 855.74 478.716 407.366 927.096 407.638" fill="#007dd1"/><polygon points="500.723 429.362 500.99 856.327 516.739 856.017 516.483 445.122 927.379 445.378 927.688 429.629 500.723 429.362" fill="#007dd1"/><polygon points="538.724 854.662 554.473 852.992 554.244 482.883 924.354 483.112 926.024 467.363 538.484 467.123 538.724 854.662" fill="#007dd1"/><polygon points="576.453 849.663 592.208 846.574 592.005 520.649 917.93 520.852 921.014 505.103 576.24 504.89 576.453 849.663" fill="#007dd1"/><polygon points="614.193 841.17 629.942 836.529 629.766 558.405 907.89 558.581 912.531 542.832 614.006 542.645 614.193 841.17" fill="#007dd1"/><polygon points="651.928 828.953 667.676 822.626 667.532 596.166 893.992 596.31 900.32 580.561 651.773 580.406 651.928 828.953" fill="#007dd1"/><polygon points="689.657 812.607 705.4 804.417 705.293 633.932 875.779 634.039 883.968 618.295 689.534 618.173 689.657 812.607" fill="#007dd1"/><polygon points="727.386 791.576 743.124 781.21 743.055 671.688 852.577 671.757 862.948 656.014 727.3 655.929 727.386 791.576" fill="#007dd1"/><polygon points="765.104 764.965 780.848 751.926 780.821 709.454 823.293 709.481 836.331 693.738 765.061 693.695 765.104 764.965" fill="#007dd1"/><polygon points="891.085 256.663 883.733 240.909 311.912 240.551 312.27 812.372 328.024 819.724 327.672 256.311 891.085 256.663" fill="#007dd1"/><polygon points="817.43 143.396 802.444 127.636 198.624 127.257 199.003 731.077 214.762 746.063 214.383 143.017 817.43 143.396" fill="#007dd1"/><polygon points="160.911 170.385 161.231 687.912 176.996 707.368 176.649 150.95 160.911 170.385" fill="#007dd1"/><polygon points="123.208 229.225 123.459 629.029 139.229 656.259 138.947 202.011 123.208 229.225" fill="#007dd1"/><polygon points="85.533 329.064 85.655 529.137 101.436 580.39 101.25 277.838 85.533 329.064" fill="#007dd1"/><polygon points="759.273 89.875 241.747 89.55 222.311 105.288 778.73 105.635 759.273 89.875" fill="#007dd1"/><polygon points="700.385 52.098 300.581 51.847 273.367 67.58 727.615 67.863 700.385 52.098" fill="#007dd1"/><polygon points="600.498 14.294 400.425 14.172 349.193 29.888 651.746 30.075 600.498 14.294" fill="#007dd1"/><path d="M186.526,894.53c-6.326-6.179-14.513-10.056-24.282-10.056h-41.525c-3.16,0-6.032,2.873-6.032,6.036,0,0,0,100.573,0,100.573.085,7.725,11.779,7.762,12.211.144v-94.398c11.39,1.377,42.75-4.449,50.863,6.466,13.838,12.746,3.625,38.177-15.514,37.358,0,0-26.007,0-26.007,0-6.03-.406-8.032,7.887-3.594,11.06h-.143l53.88,44.254c3.016,2.299,6.463,1.865,8.761-1.151v.144c2.012-2.729,1.438-6.753-1.004-8.765-13.649-11.064-26.725-22.271-40.374-33.478,34.239,4.665,56.826-31.848,32.76-58.187Z" fill="#007dd1"/><path d="M270.798,886.917c-48.683-.71-73.482,60.694-39.081,94.107h-.003c19.546,21.302,58.408,21.378,78.019,0h-.143c34.789-32.717,9.481-95.168-38.792-94.107ZM301.259,972.262c-40.971,39.396-100.093-19.26-60.92-60.776,41.586-39.061,100.011,19.608,60.92,60.776Z" fill="#007dd1"/><path d="M415.271,940.223h.144c-1.582-1.578-3.593-3.16-5.458-4.451,19.663-16.544,7.308-49.514-18.104-49.282h-40.804c-3.016,0-5.892,2.873-5.892,6.032h0s-.144,98.705-.144,98.705c0,3.16,2.876,6.036,5.891,6.036,16.455-1.383,52.949,5.452,64.511-10.057v.143c12.724-11.611,13.008-35.473-.144-47.127ZM407.085,978.726c-8.115,10.563-38.546,4.998-49.855,6.322v-86.493c14.619,1.906,50.306-7.94,50.86,15.948-.772,21.272-28.453,14.746-42.098,15.662-7.538-.041-7.839,11.859-.147,11.928l.003-.003c10.511.924,33.736-3.527,41.238,6.319,8.39,7.907,8.315,22.476,0,30.318Z" fill="#007dd1"/><path d="M499.543,886.917c-48.683-.71-73.483,60.694-39.081,94.107h-.003c19.546,21.302,58.408,21.378,78.019,0h-.143c34.789-32.717,9.481-95.168-38.791-94.107ZM530.007,972.262c-40.971,39.396-100.093-19.26-60.92-60.776,41.586-39.061,100.011,19.608,60.92,60.776Z" fill="#007dd1"/><path d="M684.915,984.904h-57.326s0-94.394,0-94.394c-.187-7.182-11.956-8.561-12.498-.144h.003c.28.719-.541,101.026.287,101.577.373.393.498,2.613.574,3.163h.717l.144.861s2.729.287,2.729.287c.192.212.912.465,1.147.574,0,0,64.223.287,64.222.287,7.769.013,7.781-12.483,0-12.211Z" fill="#007dd1"/><path d="M760.167,889.936c-2.548-5.484-8.468-5.362-11.063,0,0,0-39.657,98.274-39.657,98.274-1.004,3.16.434,6.606,3.45,7.614h-.144c3.016,1.581,6.606,0,7.614-3.16v.14l34.339-84.625,34.195,84.625v-.14c1.008,3.16,4.601,4.741,7.76,3.16h-.143c2.729-1.004,4.454-4.738,3.303-7.614,0,0-39.653-98.274-39.654-98.274Z" fill="#007dd1"/><path d="M888.622,939.502h.144c-1.582-1.578-3.593-3.16-5.458-4.451,19.663-16.544,7.308-49.514-18.104-49.282h-40.804c-3.016,0-5.892,2.873-5.892,6.032h0s-.144,98.705-.144,98.705c0,3.16,2.876,6.036,5.891,6.036,16.455-1.383,52.949,5.452,64.511-10.057v.144c12.724-11.611,13.007-35.473-.144-47.127ZM880.434,978.005c-8.115,10.563-38.546,4.998-49.855,6.322v-86.493c14.619,1.906,50.306-7.94,50.86,15.948-.772,21.272-28.453,14.746-42.098,15.662-7.539-.041-7.839,11.859-.147,11.928l.003-.003c10.511.924,33.736-3.527,41.238,6.319,8.39,7.907,8.315,22.476,0,30.319Z" fill="#007dd1"/></svg>
